<svg width="130" height="96" viewBox="0 0 130 96" fill="none" xmlns="http://www.w3.org/2000/svg">
<g clip-path="url(#clip0_6_231)">
<path d="M59.8472 42.0715C59.8472 31.1408 59.8511 20.2102 59.8627 9.27949C59.8627 8.31433 59.6216 7.39956 59.2793 6.57395C57.5798 2.46138 54.0406 -0.0115875 49.4125 4.08281e-05C36.4537 0.0310498 23.4988 0.0194215 10.54 4.08281e-05C8.57989 4.08281e-05 6.75586 0.387653 5.06018 1.4032C1.89049 3.29862 0.0781289 6.12044 0.0547937 9.73299C-0.0385468 24.8731 0.0159019 40.0133 0.0197911 55.1534C0.0197911 56.6225 0.533164 57.9753 1.15932 59.2505C2.73833 62.4754 5.74856 63.9212 8.87547 65.1965C15.0593 67.716 20.7881 71.158 26.758 74.1116C28.5042 74.9759 30.2232 75.8985 31.9811 76.7473C34.1708 77.8055 35.3414 79.4529 35.2519 81.9336C35.2092 83.1274 35.2442 84.3213 35.2442 85.5151C35.2442 88.7749 35.2442 92.0387 35.2519 95.2985C35.2519 95.531 35.108 95.8721 35.4503 95.9652C35.6992 96.0349 35.9053 95.8954 36.1037 95.6667C36.4693 95.2442 36.9282 94.907 37.3249 94.5116C42.2836 89.5579 47.2618 84.6236 52.1777 79.6312C55.0946 76.6659 58.3109 74.0689 59.4116 69.8866C60.3878 66.1694 59.8549 62.2506 59.8549 58.4636C59.8549 52.9983 59.8549 47.533 59.8549 42.0676L59.8472 42.0715ZM55.1335 67.5842C55.079 68.2586 54.9662 68.9253 54.729 69.5571C54.1806 71.0417 53.0216 72.2045 51.8938 73.317C48.024 77.1388 44.1348 80.9491 40.2301 84.736C40.1718 81.7824 40.059 78.6583 38.4566 76.1737C36.831 73.6503 33.9646 72.251 31.2422 70.9758C24.0122 67.5803 16.7822 64.1887 9.5483 60.7932C8.14042 60.1343 6.6703 59.4172 5.78357 58.1458C4.76071 56.6729 4.72182 54.7542 4.72182 52.9634C4.72182 39.4202 4.71793 25.8732 4.71404 12.33C4.71404 10.2718 4.78794 7.98098 6.25027 6.37239C7.7126 4.7638 10.225 4.65139 12.3252 4.65139C23.7555 4.65139 35.1858 4.65139 46.6123 4.64752C49.533 4.64752 53.0061 4.94985 54.449 7.48096C55.1529 8.71745 55.1724 10.2136 55.1724 11.6362C55.1724 29.6718 55.1724 47.7074 55.1724 65.7391C55.1724 66.3516 55.1724 66.9679 55.1218 67.5803L55.1335 67.5842Z" fill="#FFF200" fill-opacity="0.57"/>
<path d="M129.984 38.9086C129.984 29.288 129.973 19.6675 129.996 10.0508C130 8.40347 129.58 6.8569 128.818 5.47312C126.834 1.87607 123.735 0.00778238 119.565 0.0116585C106.544 0.0116585 93.5234 0.0194108 80.5023 0.00390625C79.005 0.00390625 77.5971 0.286863 76.2087 0.845025C72.759 2.23268 70.1182 6.08167 70.126 9.83764C70.1571 24.753 70.1377 39.6644 70.1416 54.5798C70.1416 55.5333 70.1882 56.4558 70.5032 57.4093C71.3472 59.9714 72.759 62.0374 75.1469 63.3359C77.1304 64.4135 79.1606 65.4019 81.183 66.4058C83.8821 67.7431 86.5967 69.0493 89.3036 70.375C91.3104 71.3595 93.3211 72.3363 95.3202 73.3441C97.2881 74.3364 99.1821 75.4992 101.212 76.3403C104.09 77.5303 105.471 79.4994 105.413 82.6196C105.335 86.8136 105.389 91.0115 105.405 95.2093C105.405 95.4612 105.226 95.8178 105.626 95.9574C106.012 96.0892 106.093 95.7287 106.284 95.5388C109.247 92.589 112.215 89.6432 115.182 86.6973C119.017 82.8987 122.852 79.1001 126.69 75.3054C128.927 73.096 130.012 70.4564 130 67.2896C129.957 57.8318 129.984 48.3741 129.984 38.9163V38.9086ZM125.294 67.7392C125.294 69.5455 124.435 70.9254 123.206 72.1464C119.161 76.1698 115.128 80.2087 111.067 84.2166C110.9 84.3794 110.791 84.8213 110.422 84.6546C110.119 84.5189 110.15 84.1662 110.134 83.8794C110.072 82.5615 110.146 81.2475 109.928 79.9257C109.562 77.7163 108.477 75.9798 106.995 74.5534C103.799 71.4835 98.7543 69.8594 95.0829 68.0222C92.8894 66.9252 90.6959 65.8244 88.4946 64.7391C85.955 63.4832 83.4037 62.2545 80.8718 60.987C79.7245 60.4133 78.5461 59.9055 77.461 59.204C75.7225 58.0799 74.8086 56.5372 74.8086 54.4518C74.8125 39.7303 74.8475 25.0049 74.7775 10.2834C74.7619 7.40731 77.4493 4.632 80.3935 4.64363C93.4806 4.68239 106.572 4.67464 119.659 4.65138C122.735 4.6475 125.306 7.38017 125.302 10.2989C125.282 29.447 125.29 48.5911 125.294 67.7392Z" fill="#FFF200" fill-opacity="0.57"/>
</g>
<defs>
<clipPath id="clip0_6_231">
<rect width="130" height="95.9884" fill="white"/>
</clipPath>
</defs>
</svg>
