<svg width="85" height="96" viewBox="0 0 85 96" fill="none" xmlns="http://www.w3.org/2000/svg">
<g clip-path="url(#clip0_57_36)">
<path d="M12.6062 96.0002C12.0394 95.8447 11.4726 95.6893 10.9058 95.5144C6.41053 94.0961 3.53746 90.1325 3.53746 85.2946C3.53746 71.0141 3.53746 56.7142 3.51792 42.4337C3.51792 41.3845 3.34201 40.3159 3.06839 39.3056C2.24751 36.294 1.32891 33.3019 0.468939 30.3098C-1.251 24.2867 1.81753 18.7494 7.87639 17.0008C23.0431 12.6098 38.2098 8.2576 53.3765 3.88602C57.5395 2.6814 61.6635 1.37964 65.8656 0.349892C71.6899 -1.06844 76.8888 2.00138 78.6478 7.69415C79.7032 11.1331 80.6805 14.5915 81.6773 18.0305C82.1854 19.7792 81.7359 20.5758 79.9378 21.1003C71.4358 23.5484 62.9339 25.9965 54.4319 28.4446C43.0373 31.7282 31.6428 35.0117 20.2482 38.2758C19.955 38.3535 19.6619 38.4701 19.3687 38.7421H82.0095C82.42 38.7421 82.8304 38.7421 83.2408 38.781C84.1594 38.8781 84.7458 39.3639 84.9021 40.277C84.9608 40.6462 84.9999 41.0153 84.9999 41.4039C84.9999 55.937 84.9999 70.4701 84.9999 85.0226C84.9999 89.6857 82.9477 93.1246 78.6674 95.1258C77.7683 95.5533 76.7715 95.7282 75.8138 96.0196H51.2852C51.1093 95.903 50.9334 95.7864 50.7575 95.6504C50.093 95.1841 49.8389 94.543 49.9953 93.7658C50.1516 92.9886 50.6598 92.5029 51.4416 92.3475C51.8129 92.2697 52.1843 92.2698 52.5752 92.2698C59.6113 92.2698 66.6669 92.2698 73.703 92.2698C78.4524 92.2698 81.2277 89.5302 81.2277 84.8478C81.2277 76.9401 81.2277 69.0323 81.2277 61.1246C81.2277 60.7943 81.2082 60.464 81.1886 60.1143H7.30959V61.0275C7.30959 69.0712 7.30959 77.0955 7.30959 85.1198C7.30959 89.4719 10.1436 92.2698 14.5216 92.2698C18.0201 92.2698 21.4991 92.2698 24.9976 92.2698C28.7697 92.2698 32.5418 92.2698 36.314 92.2698C37.6235 92.2698 38.4443 92.8721 38.5421 93.9407C38.6593 95.0093 37.9948 95.5921 37.1153 96.0196H12.6062V96.0002ZM56.4646 6.8587C56.6991 7.11128 56.7968 7.22785 56.9141 7.34443C61.1944 11.444 65.4747 15.5241 69.7745 19.5849C69.9895 19.7986 70.5172 19.8763 70.8299 19.7792C72.8821 19.2351 74.9343 18.6134 76.967 18.0111C77.2015 17.9528 77.4165 17.8362 77.7097 17.7391C76.7129 14.4167 75.8334 11.1331 74.7389 7.92731C73.7421 5.03234 70.4977 3.10885 67.6051 3.78887C63.9111 4.64376 60.2953 5.79009 56.4841 6.8587M23.2581 33.5157C23.1995 33.3796 23.1995 33.3019 23.1604 33.2631C18.7628 29.0664 14.3848 24.8502 9.96767 20.6729C9.83086 20.5369 9.59632 20.4398 9.40088 20.4592C6.01964 20.8089 3.12702 24.7142 3.86972 28.056C4.43652 30.5818 5.23785 33.0494 5.94146 35.5363C6.19554 36.43 6.46917 37.3044 6.74279 38.2564C12.313 36.6438 17.7856 35.07 23.2581 33.4962M81.1886 42.4725C78.5892 42.4725 76.0484 42.492 73.5076 42.4725C72.8626 42.4725 72.5108 42.6668 72.1785 43.2303C69.8527 47.3104 67.4878 51.3517 65.1229 55.393C64.9861 55.6262 64.8688 55.8787 64.7124 56.1702H81.1886V42.4725ZM7.40732 42.5114V56.2285C10.0068 56.2285 12.5476 56.209 15.0688 56.2285C15.7334 56.2285 16.0656 56.0147 16.3783 55.4513C18.6846 51.41 21.0495 47.3881 23.3754 43.3663C23.5317 43.1137 23.649 42.8417 23.8444 42.492H7.36823L7.40732 42.5114ZM65.9047 21.1975C65.7679 21.0032 65.7092 20.9061 65.631 20.8283C61.3117 16.6899 56.9923 12.5515 52.6338 8.4519C52.4384 8.2576 51.9497 8.21875 51.637 8.29646C50.5034 8.56847 49.4089 8.9182 48.2949 9.2485C46.3404 9.81194 44.4055 10.3754 42.451 10.9194C42.3924 11.0166 42.3337 11.1331 42.2556 11.2303C42.5487 11.4051 42.881 11.5606 43.1155 11.7743C46.7899 15.2716 50.5425 18.7105 54.0997 22.3244C55.4678 23.7039 56.6209 24.073 58.4777 23.393C60.8621 22.4993 63.3639 21.9164 65.9047 21.1975ZM28.2615 14.9996L28.0465 15.3104C28.3397 15.4853 28.672 15.6213 28.9261 15.8544C32.4636 19.2157 36.1185 22.4993 39.4802 26.0354C41.122 27.7646 42.5878 28.2503 44.8159 27.3371C47.0049 26.4434 49.3503 25.9577 51.7152 25.2776C51.5784 25.0833 51.5198 24.9862 51.4416 24.9085C47.1222 20.7701 42.7833 16.6316 38.4443 12.5126C38.288 12.3572 37.9362 12.2406 37.7212 12.2989C34.5549 13.1732 31.4082 14.0864 28.2615 14.9996ZM13.9939 19.1186C14.0721 19.274 14.1112 19.3517 14.1698 19.4294C18.5087 23.5873 22.8672 27.7452 27.2257 31.8836C27.4211 32.0779 27.9097 32.1167 28.2029 32.039C30.8023 31.3201 33.3823 30.5624 35.9817 29.8241C36.4703 29.6881 36.9589 29.5326 37.6625 29.3189C37.2717 29.0081 37.0176 28.8138 36.783 28.6C32.8155 24.8113 28.8283 21.0615 24.8998 17.2339C24.1571 16.515 23.5513 16.3402 22.5545 16.651C19.7205 17.5448 16.867 18.322 13.9939 19.1574M35.1217 56.2673C38.4248 56.2673 41.5715 56.2479 44.6986 56.2673C45.3241 56.2673 45.6368 56.0536 45.93 55.529C48.2558 51.4683 50.6207 47.427 52.9856 43.3663C53.1224 43.1137 53.2592 42.8611 53.4742 42.4725C50.1516 42.4725 47.0245 42.492 43.8778 42.4725C43.2523 42.4725 42.9396 42.6863 42.6269 43.2109C40.2815 47.291 37.8971 51.3712 35.5322 55.4513C35.4149 55.665 35.2976 55.8787 35.1022 56.2673M68.2109 42.492C64.7906 42.492 61.5462 42.492 58.3213 42.5308C58.0281 42.5308 57.6372 42.9 57.4613 43.1914C55.0573 47.291 52.6729 51.41 50.2884 55.5096C50.1712 55.7039 50.093 55.937 49.9366 56.2673C53.1811 56.2673 56.3278 56.2479 59.4745 56.2673C60.0999 56.2673 60.4321 56.0536 60.7253 55.529C63.0511 51.4683 65.416 47.4076 67.781 43.3469C67.9178 43.1137 68.035 42.8611 68.25 42.4725M20.385 56.1896C20.7564 56.1896 21.03 56.2285 21.3036 56.2285C24.1571 56.2285 27.0107 56.209 29.8837 56.2285C30.5287 56.2285 30.8805 56.0147 31.1932 55.4513C33.4995 51.41 35.8449 47.3881 38.1903 43.3663C38.3466 43.1137 38.4639 42.8417 38.6593 42.492C38.288 42.4725 38.0144 42.4531 37.7407 42.4531C34.8872 42.4531 32.0141 42.4725 29.1606 42.4337C28.4961 42.4337 28.1638 42.6668 27.8511 43.2303C25.5253 47.2716 23.1799 51.2934 20.8541 55.3153C20.6977 55.5679 20.5805 55.8593 20.4046 56.1896" fill="#FFF8F5"/>
<path d="M43.7411 95.9999C43.5652 95.8834 43.3893 95.7668 43.2134 95.6308C42.4903 95.1062 42.2362 94.4067 42.5098 93.5713C42.7639 92.7358 43.4089 92.2695 44.2688 92.2695C45.1288 92.2695 45.7738 92.7164 46.0278 93.5519C46.3015 94.4456 46.0278 95.1451 45.2461 95.6697C45.0702 95.7862 44.8747 95.8834 44.6793 95.9999H43.7411Z" fill="#FFF8F5"/>
<path d="M36.959 75.9296C36.959 72.9375 36.959 69.926 36.959 66.9338C36.959 64.8161 38.3662 64.0195 40.223 65.0686C45.4805 68.0802 50.738 71.0917 55.976 74.1032C57.7546 75.133 57.7741 76.7845 56.0151 77.7948C50.738 80.8258 45.4609 83.8567 40.1839 86.8683C38.3857 87.898 36.9785 87.082 36.9785 85.0225C36.9785 81.9915 36.9785 78.9606 36.9785 75.9296M51.6762 75.949C47.9822 73.8312 44.4446 71.7912 40.8093 69.7122V82.1858C44.4446 80.1069 47.9822 78.0668 51.6762 75.949Z" fill="#FFF8F5"/>
</g>
<defs>
<clipPath id="clip0_57_36">
<rect width="85" height="96" fill="white"/>
</clipPath>
</defs>
</svg>
